<svg viewBox="0 0 477 780" version="1.1" xmlns="http://www.w3.org/2000/svg" title="animated image from https://www.brandevolutionco.com/" desc="Created using Brand Evolution svg converter at https://www.brandevolutionco.com/animate/" class="animate-svg"><defs><style>.animate-svg path{-webkit-animation:draw ease-in-out forwards;animation:draw ease-in-out forwards;stroke:#000}.animate-svg{-webkit-animation:fillopacity 3 ease-in-out forwards;animation:fillopacity 3s ease-in-out forwards}@-webkit-keyframes draw{100%{stroke-dashoffset:0}}@keyframes draw{100%{stroke-dashoffset:0}}@-webkit-keyframes fillopacity{0%,70%{fill-opacity:0;stroke-width:0.5%}100%{fill-opacity:1;stroke-width:0}}@keyframes fillopacity{0%,70%{fill-opacity:0;stroke-width:0.5%}100%{fill-opacity:1;stroke-width:0}}</style></defs><path fill="rgb(247,247,247)" stroke="rgb(247,247,247)" stroke-width="null" opacity="1" d="M 0 1 L 0.5 1 L 476.5 1 L 477 1 L 477 1.5 L 477 779.5 L 477 780 L 476.5 780 L 0.5 780 L 0 780 L 0 779.5 L 0 1.5 L 0 1 Z M 17 20 L 17 21 L 17 763 L 17 763 L 18 763 L 461 763 L 461 763 L 461 763 L 461 21 L 461 20 L 461 20 L 18 20 L 17 20 Z " style="stroke-dasharray: 4886; stroke-dashoffset: 4886; animation-delay: 0s; animation-duration: 1.82946s;"></path><path fill="rgb(247,247,247)" stroke="rgb(247,247,247)" stroke-width="null" opacity="1" d="M 322.5 56 L 357.5 56 L 358.5 57 L 362.5 57 Q 364.5 59.5 369.5 59 Q 389.7 65.8 402 80.5 Q 408.5 88 413 97.5 L 413 99.5 L 414 100.5 Q 413.7 104.8 416 106.5 L 416 109.5 L 417 110.5 L 417 114.5 L 418 115.5 L 418 267.5 L 418 268 L 417.5 268 L 376.5 268 Q 375.8 268.3 376 267.5 L 376 121.5 Q 373.8 110.2 366.5 104 L 365.5 104 Q 361.6 99.4 354.5 98 Q 349 99.5 347.5 97 L 330.5 97 L 329.5 98 Q 325 97.5 322.5 99 Q 320.5 101.5 316.5 102 L 309 109.5 Q 305.9 112.9 305 118.5 L 305 204.5 L 304 205.5 L 304 292.5 L 305 293.5 L 305 298.5 L 306 299.5 L 306 301.5 Q 308.1 302.9 308 306.5 Q 315.3 319.3 325.5 329 L 326.5 329 L 330 332.5 Q 329.3 334.8 331.5 334 Q 342.4 345.6 355.5 355 L 364.5 364 L 365.5 364 L 370.5 369 L 371.5 369 L 395 392.5 Q 405.3 404.2 412 419.5 L 412 421.5 L 413 422.5 Q 412.7 426.8 415 428.5 L 415 431.5 L 416 432.5 L 416 436.5 L 417 437.5 L 417 652.5 Q 412.2 679.2 395.5 694 Q 384.1 704.6 367.5 710 Q 364.3 709.3 363.5 711 L 359.5 711 L 358.5 712 L 354.5 712 L 353.5 713 L 325.5 713 L 324.5 712 Q 320.5 713 319.5 711 L 314.5 711 L 313.5 710 L 311.5 710 Q 309.8 707.7 305.5 708 L 304.5 707 L 303.5 707 Q 299.9 703.1 293.5 702 Q 284.8 696.2 278 688.5 Q 271.1 680.9 267 670.5 L 267 668.5 Q 264.5 666.5 264 662.5 Q 264.8 659.3 263 658.5 L 263 652.5 L 262 651.5 L 262 501.5 L 262 501 L 262.5 501 L 303.5 501 Q 304.3 500.8 304 501.5 L 304 650.5 Q 306.8 659.7 313.5 665 Q 318.5 669.5 326.5 671 L 352.5 671 Q 364.7 667.7 371 658.5 Q 373.9 654.4 375 648.5 L 375 442.5 Q 372.5 431 366 423.5 Q 356.4 410.1 343.5 400 Q 327.6 384.4 309.5 371 L 285 346.5 Q 275.7 335.3 269 321.5 Q 268.3 314.8 265 310.5 Q 265.8 307.3 264 306.5 L 264 302.5 L 263 301.5 L 263 115.5 Q 268.2 86.7 287.5 72 Q 295.4 65.4 305.5 61 L 307.5 61 L 308.5 60 Q 312.8 60.3 314.5 58 L 317.5 58 Q 318.3 56.3 321.5 57 L 322.5 56 Z " style="stroke-dasharray: 2468.57; stroke-dashoffset: 2468.57; animation-delay: 0.166667s; animation-duration: 1.25751s;"></path><path fill="rgb(247,247,247)" stroke="rgb(247,247,247)" stroke-width="null" opacity="1" d="M 55 58 L 55.5 58 L 135.5 58 L 136.5 59 L 142.5 59 Q 143.5 61 147.5 60 Q 173.7 67.3 189 85.5 Q 204.6 101.4 209 128.5 L 209 137.5 L 210 138.5 L 210 293.5 L 209 294.5 L 209 641.5 L 208 642.5 L 208 646.5 L 207 647.5 L 207 651.5 Q 204.5 653.5 205 658.5 Q 201.6 660.1 202 665.5 L 200 667.5 Q 200.3 671.8 198 673.5 Q 190.6 685.1 180.5 694 Q 170.6 702.6 157.5 708 Q 153.2 707.7 151.5 710 L 148.5 710 L 147.5 711 L 144.5 711 L 143.5 712 L 140.5 712 L 139.5 713 L 55.5 713 L 54 711.5 L 54 701.5 L 55 700.5 L 55 58.5 L 55 58 Z M 99 99 L 97 101 L 97 672 L 97 672 L 98 672 L 131 672 Q 132 670 138 671 Q 146 669 152 664 Q 163 656 167 640 L 167 534 L 168 533 L 168 137 L 167 136 L 167 131 Q 165 130 166 127 Q 164 120 160 117 L 160 116 Q 152 104 137 100 Q 132 101 131 99 L 99 99 Z " style="stroke-dasharray: 2809.29; stroke-dashoffset: 2809.29; animation-delay: 0.333333s; animation-duration: 1.31506s;"></path><path fill="rgb(0,0,0)" stroke="rgb(0,0,0)" stroke-width="null" opacity="1" d="M 0.5 0 L 476.5 0 L 477 0.5 L 476.5 1 L 0.5 1 Q -0.5 0.5 0.5 0 Z " style="stroke-dasharray: 954.893; stroke-dashoffset: 954.893; animation-delay: 0.5s; animation-duration: 1.47s;"></path><path fill="rgb(0,0,0)" stroke="rgb(0,0,0)" stroke-width="null" opacity="1" d="M 17 20 L 17.5 20 L 460.5 20 L 461 20 L 461 20.5 L 461 762.5 L 461 763 L 460.5 763 L 17.5 763 L 17 763 L 17 762.5 L 17 20.5 L 17 20 Z M 323 56 L 322 57 Q 318 56 318 58 L 315 58 Q 313 60 309 60 L 308 61 L 306 61 Q 295 65 288 72 Q 268 87 263 116 L 263 302 L 264 303 L 264 307 Q 266 307 265 311 Q 268 315 269 322 Q 276 335 285 347 L 310 371 Q 328 384 344 400 Q 356 410 366 424 Q 373 431 375 443 L 375 649 Q 374 654 371 659 Q 365 668 353 671 L 327 671 Q 319 669 314 665 Q 307 660 304 651 L 304 502 Q 304 501 304 501 L 263 501 L 262 501 L 262 502 L 262 652 L 263 653 L 263 659 Q 265 659 264 663 Q 265 666 267 669 L 267 671 Q 271 681 278 689 Q 285 696 294 702 Q 300 703 304 707 L 305 707 L 306 708 Q 310 708 312 710 L 314 710 L 315 711 L 320 711 Q 320 713 325 712 L 326 713 L 354 713 L 355 712 L 359 712 L 360 711 L 364 711 Q 364 709 368 710 Q 384 705 396 694 Q 412 679 417 653 L 417 438 L 416 437 L 416 433 L 415 432 L 415 429 Q 413 427 413 423 L 412 422 L 412 420 Q 405 404 395 393 L 372 369 L 371 369 L 366 364 L 365 364 L 356 355 Q 342 346 332 334 Q 329 335 330 333 L 327 329 L 326 329 Q 315 319 308 307 Q 308 303 306 302 L 306 300 L 305 299 L 305 294 L 304 293 L 304 206 L 305 205 L 305 119 Q 306 113 309 110 L 317 102 Q 320 101 323 99 Q 325 98 330 98 L 331 97 L 348 97 Q 349 100 355 98 Q 362 99 366 104 L 367 104 Q 374 110 376 122 L 376 268 Q 376 268 377 268 L 418 268 L 418 268 L 418 268 L 418 116 L 417 115 L 417 111 L 416 110 L 416 107 Q 414 105 414 101 L 413 100 L 413 98 Q 409 88 402 81 Q 390 66 370 59 Q 365 59 363 57 L 359 57 L 358 56 L 323 56 Z M 55 58 L 55 59 L 55 701 L 54 702 L 54 712 L 56 713 L 140 713 L 141 712 L 144 712 L 145 711 L 148 711 L 149 710 L 152 710 Q 153 708 158 708 Q 171 703 181 694 Q 191 685 198 674 Q 200 672 200 668 L 202 666 Q 202 660 205 659 Q 205 654 207 652 L 207 648 L 208 647 L 208 643 L 209 642 L 209 295 L 210 294 L 210 139 L 209 138 L 209 129 Q 205 101 189 86 Q 174 67 148 60 Q 143 61 143 59 L 137 59 L 136 58 L 56 58 L 55 58 Z " style="stroke-dasharray: 6399.24; stroke-dashoffset: 6399.24; animation-delay: 0.666667s; animation-duration: 2.27259s;"></path><path fill="rgb(0,0,0)" stroke="rgb(0,0,0)" stroke-width="null" opacity="1" d="M 98.5 99 L 130.5 99 Q 131.8 101.3 136.5 100 Q 151.8 104.2 160 115.5 L 160 116.5 Q 164.3 120.2 166 126.5 Q 165.3 129.8 167 130.5 L 167 135.5 L 168 136.5 L 168 532.5 L 167 533.5 L 167 639.5 Q 163.2 655.7 151.5 664 Q 145.8 668.8 137.5 671 Q 132 669.5 130.5 672 L 97.5 672 L 97 672 L 97 671.5 L 97 100.5 L 98.5 99 Z " style="stroke-dasharray: 1254.57; stroke-dashoffset: 1254.57; animation-delay: 0.833333s; animation-duration: 1.29206s;"></path></svg>